<svg width="18" height="15" viewBox="0 0 18 15" fill="none" xmlns="http://www.w3.org/2000/svg">
<path d="M5.65425 14.8748C12.447 14.8748 16.1629 9.24643 16.1629 4.37405C16.1629 4.21655 16.1629 4.0568 16.1561 3.8993C16.8796 3.3756 17.5039 2.72722 18 1.98455C17.3242 2.28251 16.6081 2.47888 15.8749 2.5673C16.6472 2.10565 17.2257 1.37927 17.5028 0.523178C16.7771 0.953068 15.9829 1.25485 15.1549 1.4153C14.5982 0.822455 13.8616 0.429711 13.0591 0.297905C12.2566 0.1661 11.4331 0.30259 10.716 0.686233C9.99895 1.06988 9.42841 1.67926 9.09276 2.42C8.7571 3.16073 8.67508 3.99148 8.85938 4.78355C7.39096 4.70992 5.95442 4.32845 4.64292 3.66389C3.33143 2.99932 2.17427 2.0665 1.2465 0.925928C0.775508 1.7394 0.63177 2.70163 0.844477 3.61723C1.05718 4.53283 1.61039 5.33315 2.39175 5.85568C1.80623 5.83578 1.23359 5.67856 0.72 5.39668V5.4473C0.72101 6.29947 1.01622 7.12515 1.55573 7.78478C2.09525 8.44442 2.84597 8.89754 3.681 9.06755C3.36405 9.15487 3.03663 9.1984 2.70788 9.19693C2.47611 9.19763 2.2448 9.17616 2.01712 9.1328C2.25313 9.86637 2.71268 10.5077 3.3314 10.9671C3.95012 11.4264 4.69703 11.6808 5.4675 11.6944C4.15862 12.7225 2.54183 13.28 0.8775 13.2773C0.584236 13.2785 0.291176 13.2616 0 13.2267C1.6892 14.3036 3.65096 14.8754 5.65425 14.8748Z" fill="black"/>
</svg>
