<svg width="16" height="16" viewBox="0 0 16 16" fill="none" xmlns="http://www.w3.org/2000/svg">
<path d="M8.00356 3.95684C5.73214 3.95684 3.89999 5.76035 3.89999 7.99629C3.89999 10.2322 5.73214 12.0357 8.00356 12.0357C10.275 12.0357 12.1071 10.2322 12.1071 7.99629C12.1071 5.76035 10.275 3.95684 8.00356 3.95684ZM8.00356 10.6225C6.53571 10.6225 5.33571 9.44473 5.33571 7.99629C5.33571 6.54785 6.53214 5.37012 8.00356 5.37012C9.47499 5.37012 10.6714 6.54785 10.6714 7.99629C10.6714 9.44473 9.47142 10.6225 8.00356 10.6225V10.6225ZM13.2321 3.7916C13.2321 4.31543 12.8036 4.73379 12.275 4.73379C11.7429 4.73379 11.3178 4.31191 11.3178 3.7916C11.3178 3.27129 11.7464 2.84941 12.275 2.84941C12.8036 2.84941 13.2321 3.27129 13.2321 3.7916ZM15.95 4.74785C15.8893 3.48574 15.5964 2.36777 14.6571 1.44668C13.7214 0.525586 12.5857 0.237305 11.3036 0.174023C9.98214 0.100195 6.02142 0.100195 4.69999 0.174023C3.42142 0.233789 2.28571 0.52207 1.34642 1.44316C0.407136 2.36426 0.11785 3.48223 0.0535644 4.74434C-0.0214355 6.04512 -0.0214355 9.94394 0.0535644 11.2447C0.114279 12.5068 0.407136 13.6248 1.34642 14.5459C2.28571 15.467 3.41785 15.7553 4.69999 15.8186C6.02142 15.8924 9.98214 15.8924 11.3036 15.8186C12.5857 15.7588 13.7214 15.4705 14.6571 14.5459C15.5928 13.6248 15.8857 12.5068 15.95 11.2447C16.025 9.94394 16.025 6.04863 15.95 4.74785V4.74785ZM14.2428 12.6404C13.9643 13.3295 13.425 13.8604 12.7214 14.1381C11.6679 14.5494 9.16785 14.4545 8.00356 14.4545C6.83928 14.4545 4.33571 14.5459 3.28571 14.1381C2.58571 13.8639 2.04642 13.333 1.76428 12.6404C1.34642 11.6033 1.44285 9.14238 1.44285 7.99629C1.44285 6.8502 1.34999 4.38574 1.76428 3.35215C2.04285 2.66309 2.58214 2.13223 3.28571 1.85449C4.33928 1.44316 6.83928 1.53809 8.00356 1.53809C9.16785 1.53809 11.6714 1.44668 12.7214 1.85449C13.4214 2.12871 13.9607 2.65957 14.2428 3.35215C14.6607 4.38926 14.5643 6.8502 14.5643 7.99629C14.5643 9.14238 14.6607 11.6068 14.2428 12.6404Z" fill="black"/>
</svg>
